<svg width="849" height="551" viewBox="0 0 849 551" fill="none" xmlns="http://www.w3.org/2000/svg">
<path fill-rule="evenodd" clip-rule="evenodd" d="M443.733 184.002C435.733 191.736 390.8 228.535 374.4 241.869C374.152 241.869 360.293 252.596 342.692 266.219L338.667 269.335C319.2 284.402 287.467 308.935 268 323.735C248.533 338.535 219.467 360.802 203.333 373.202C187.2 385.602 169.6 399.069 164.267 403.069C161.953 405.32 159.778 407.117 158.204 408.418C156.422 409.89 155.409 410.727 155.833 410.869C151.663 414.444 139.48 424.377 125.253 435.976C117.724 442.114 109.622 448.72 101.833 455.096C78.3333 474.869 59.3333 491.572 59.3333 492.869C59.3333 492.927 59.3219 493.01 59.3079 493.112C59.2258 493.707 59.0534 494.958 60.5333 495.869C72.6667 503.869 164.8 504.935 357.333 499.202C381.867 498.402 422.133 497.202 446.667 496.535C471.2 495.735 515.6 494.535 545.334 493.869C727.2 489.335 793.333 480.669 793.333 461.202C793.333 450.669 775.467 435.602 678 364.535C635.6 333.602 581.734 294.802 509.334 243.069C488.4 228.002 471.2 214.802 470.933 213.469C470.4 211.202 486.133 193.602 491.067 190.935C492.933 190.002 495.333 190.802 501.733 194.935C503.603 196.09 506.47 197.88 509.755 199.93C514.436 202.852 519.966 206.303 524.667 209.202C561.333 232.135 573.467 240.802 622.667 279.336C636.267 290.002 666.533 313.335 690 331.202C699.651 338.55 711.489 347.566 723.557 356.758C740.835 369.918 758.585 383.437 771.067 392.936C811.067 423.469 819.334 431.069 831.467 449.335C840.133 462.402 844.667 472.002 847.467 483.469C849.6 491.869 849.467 492.402 846.933 498.269C844.667 503.469 842.933 505.069 836.267 508.402C831.6 510.802 822.667 513.469 814.533 515.069C788.267 520.269 727.067 527.069 682.667 529.869C632.8 532.935 617.467 533.869 601.334 534.535C592.133 534.935 571.467 536.135 555.334 537.202C401.467 547.202 225.867 552.802 151.867 550.002C105.333 548.269 92.8 547.202 62.5333 542.535C26.9333 537.069 6.80001 531.069 2.13335 524.402C0.800013 522.402 1.52588e-05 518.535 1.52588e-05 513.735C1.52588e-05 502.135 7.6 488.002 20.5333 475.335C22.6608 473.309 33.1402 463.797 45.3186 452.743C65.1962 434.7 89.6 412.549 89.6 412.135C90.8 411.202 98.8 404.802 107.6 397.735C116.267 390.669 141.6 371.602 164 355.202C230.933 306.135 321.333 238.002 341.067 221.735C342 221.735 414.133 165.202 418.267 161.336C419.2 160.402 420.933 152.669 422 144.002C425.2 118.269 428.4 111.069 444.4 93.8688C475.2 60.8022 465.2 29.3355 425.733 35.2021C403.867 38.5355 396.8 47.8688 392.933 78.5355L391.333 91.8688L384.667 92.8022C377.2 94.0022 362 92.9355 358.133 90.9355C356 89.7355 355.867 88.6689 356.667 82.1355C360.4 52.4022 375.467 24.2688 394.267 11.7355C408 2.66882 416.933 0.00219727 435.333 0.00219727C458.667 -0.131104 476.933 5.73547 489.2 17.2021C505.334 32.2689 506.8 56.5355 493.334 84.5355C486.667 98.1355 481.867 105.202 470.933 117.069C457.734 131.469 453.334 143.202 453.334 164.536V174.802L443.733 184.002Z" fill="#5F685B"/>
</svg>
